<svg xmlns="http://www.w3.org/2000/svg" viewBox="0 0 100 100" width="100" height="100">
  <rect width="100" height="100" fill="#000000"/>
  <g fill="#ffffff">
    <rect x="20" y="34" width="4" height="4"/>
    <rect x="16" y="38" width="4" height="4"/>
    <rect x="20" y="38" width="4" height="4"/>
    <rect x="12" y="42" width="4" height="4"/>
    <rect x="20" y="42" width="4" height="4"/>
    <rect x="20" y="46" width="4" height="4"/>
    <rect x="20" y="50" width="4" height="4"/>
    <rect x="20" y="54" width="4" height="4"/>
    <rect x="20" y="58" width="4" height="4"/>
    <rect x="12" y="62" width="4" height="4"/>
    <rect x="16" y="62" width="4" height="4"/>
    <rect x="20" y="62" width="4" height="4"/>
    <rect x="24" y="62" width="4" height="4"/>
    <rect x="28" y="62" width="4" height="4"/>
    <rect x="48" y="34" width="4" height="4"/>
    <rect x="44" y="38" width="4" height="4"/>
    <rect x="48" y="38" width="4" height="4"/>
    <rect x="40" y="42" width="4" height="4"/>
    <rect x="48" y="42" width="4" height="4"/>
    <rect x="48" y="46" width="4" height="4"/>
    <rect x="48" y="50" width="4" height="4"/>
    <rect x="48" y="54" width="4" height="4"/>
    <rect x="48" y="58" width="4" height="4"/>
    <rect x="40" y="62" width="4" height="4"/>
    <rect x="44" y="62" width="4" height="4"/>
    <rect x="48" y="62" width="4" height="4"/>
    <rect x="52" y="62" width="4" height="4"/>
    <rect x="56" y="62" width="4" height="4"/>
    <rect x="76" y="34" width="4" height="4"/>
    <rect x="72" y="38" width="4" height="4"/>
    <rect x="76" y="38" width="4" height="4"/>
    <rect x="68" y="42" width="4" height="4"/>
    <rect x="76" y="42" width="4" height="4"/>
    <rect x="76" y="46" width="4" height="4"/>
    <rect x="76" y="50" width="4" height="4"/>
    <rect x="76" y="54" width="4" height="4"/>
    <rect x="76" y="58" width="4" height="4"/>
    <rect x="68" y="62" width="4" height="4"/>
    <rect x="72" y="62" width="4" height="4"/>
    <rect x="76" y="62" width="4" height="4"/>
    <rect x="80" y="62" width="4" height="4"/>
    <rect x="84" y="62" width="4" height="4"/>
  </g>
</svg>